<?xml version="1.0" encoding="utf-8"?>
<svg width="185" height="37" viewBox="0 0 185 37" fill="none" xmlns="http://www.w3.org/2000/svg">
  <g clip-path="url(#clip0_345_168)">
    <path d="M30.6582 28.7341V6.75815L23.0263 0.858178L23.0411 11.7642L11.577 0H0L30.6582 28.7341Z" fill="black"/>
    <path d="M5.97845 8.26587V30.2418L13.6133 36.1418L13.5925 25.2328L25.0626 36.9999H36.6396L5.97845 8.26587Z" fill="#88B21A"/>
    <path d="M 67.188 5.471 L 67.188 31.72 L 65.437 31.72 L 50.574 15.784 L 50.574 31.252 L 45.319 31.252 L 45.319 5 L 47.032 5 L 61.934 20.82 L 61.934 5.471 L 67.188 5.471 Z" fill="#88B21A"/>
    <path d="M 90.339 10.235 L 78.317 10.235 L 78.317 15.471 L 87.151 15.471 L 87.151 19.961 L 78.317 19.961 L 78.317 26.484 L 90.808 26.484 L 90.808 31.249 L 73.066 31.249 L 73.066 5.471 L 90.342 5.471 L 90.342 10.235 L 90.339 10.235 Z" fill="#88B21A"/>
    <path d="M 109.794 31.252 L 104.347 22.697 L 98.9 31.252 L 92.907 31.252 L 101.429 18.129 L 93.411 5.471 L 99.405 5.471 L 104.347 13.635 L 109.251 5.471 L 115.203 5.471 L 107.342 18.126 L 115.746 31.249 L 109.791 31.249 L 109.794 31.252 Z" fill="#88B21A"/>
    <path d="M 138.547 10.235 L 130.297 10.235 L 130.297 31.249 L 125.043 31.249 L 125.043 10.235 L 116.832 10.235 L 116.832 5.471 L 138.544 5.471 L 138.544 10.235 L 138.547 10.235 Z" fill="black"/>
    <path d="M 157.767 31.252 L 151.112 22.152 L 147.259 22.152 L 147.259 31.252 L 142.005 31.252 L 142.005 5.471 L 151.655 5.471 C 154.38 5.471 156.604 6.234 158.328 7.756 C 160.053 9.279 160.917 11.29 160.917 13.79 C 160.917 15.432 160.516 16.883 159.712 18.144 C 158.907 19.407 157.806 20.391 156.405 21.094 L 163.681 31.249 L 157.767 31.249 L 157.767 31.252 Z M 147.262 17.503 L 151.658 17.503 C 152.878 17.503 153.831 17.163 154.517 16.487 C 155.203 15.811 155.547 14.911 155.547 13.793 C 155.547 12.676 155.197 11.815 154.496 11.138 C 153.796 10.462 152.849 10.122 151.655 10.122 L 147.259 10.122 L 147.259 17.503 L 147.262 17.503 Z" fill="black"/>
    <path d="M 184.187 10.235 L 172.164 10.235 L 172.164 15.471 L 180.999 15.471 L 180.999 19.961 L 172.164 19.961 L 172.164 26.484 L 184.656 26.484 L 184.656 31.249 L 166.913 31.249 L 166.913 5.471 L 184.19 5.471 L 184.19 10.235 L 184.187 10.235 Z" fill="black"/>
  </g>
  <defs>
    <clipPath id="clip0_345_168">
      <rect width="185" height="37" fill="white"/>
    </clipPath>
  </defs>
</svg>